<?xml version="1.0" encoding="utf-8"?>
<!-- Generator: Adobe Illustrator 21.0.2, SVG Export Plug-In . SVG Version: 6.00 Build 0)  -->
<svg version="1.1" id="Capa_1" xmlns="http://www.w3.org/2000/svg" xmlns:xlink="http://www.w3.org/1999/xlink" x="0px" y="0px"
	 viewBox="0 0 651.2 236.5" style="enable-background:new 0 0 651.2 236.5;" xml:space="preserve">
<style type="text/css">
	.st0{fill:#FFFFFF;}
	.st1{enable-background:new    ;}
</style>
<path class="st0" d="M96,55.4L0,0v181.1l96,55.4l96-55.4v-68.3l-11.5-9.1L192,91.8V0L96,55.4z M28,48.1l53,30.7V98l27.3,21.7
	l-12.4,6.4L50,102.6V133l32,18.3v45.3l-54-31.4V48.1z M164,165.1l-54,31.3v-45.2l54-29.4V165.1z M164,91.2l-55,28.3V80.1l55-32V91.2
	z"/>
<g class="st1">
	<path class="st0" d="M219.5,112.4v-12.3c0-13,3.4-23.1,10.2-30.3c6.8-7.3,16.2-10.9,28.2-10.9c12,0,21.7,3.6,28.9,10.9
		c5.1,5.1,7.7,12.8,7.7,23.1h-18.2c0-11.1-5.9-16.6-17.8-16.6c-3.5,0-6.5,0.7-9,2c-2.5,1.4-4.3,2.9-5.5,4.7
		c-1.2,1.8-2.1,4.4-2.8,7.8c-0.7,3.5-1,6.3-1.1,8.7c-0.1,2.3-0.1,5.5-0.1,9.4s0,6.5,0.1,7.9c0,1.4,0.2,3.5,0.4,6.6
		c0.2,3,0.6,5.2,1.1,6.5c0.5,1.3,1.3,3,2.2,5c1,2.1,2.2,3.5,3.7,4.3c3.8,2.4,8.2,3.6,13,3.6c8.1,0,13.8-3.4,17.2-10.3v-6.7h-12
		v-16.2h28.7v30.1c-2.9,6.8-7.5,11.9-13.7,15.4c-6.2,3.5-13.3,5.2-21.3,5.2c-14.1,0-24.3-3.9-30.6-11.8
		C222.6,140.4,219.5,128.5,219.5,112.4z"/>
	<path class="st0" d="M387.7,104.9v7.6c0,16.7-3.1,28.8-9.4,36.4c-6.3,7.5-16.4,11.3-30.3,11.3c-13.9,0-23.9-3.8-30.1-11.3
		c-6.2-7.6-9.3-19.8-9.3-36.8v-7.3c0-15.5,3.1-27,9.4-34.5c6.3-7.6,16.3-11.3,29.9-11.3c13.7,0,23.7,3.8,30.1,11.5
		C384.4,78,387.7,89.5,387.7,104.9z M368.2,112v-5.2c0-8.9-1.1-16.1-3.4-21.4c-2.6-6.2-8.2-9.2-16.8-9.2c-8.7,0-14.3,3.1-16.9,9.2
		c-2.1,5-3.2,12.2-3.2,21.4v5.2c0,12,1.7,20.1,5,24.3c1.3,1.8,3.2,3.3,5.8,4.5c2.6,1.3,5.6,1.9,9.2,1.9c3.6,0,6.6-0.6,9.2-1.8
		c2.5-1.2,4.5-2.7,5.9-4.5c1.4-1.8,2.5-4.1,3.2-7C367.6,124.9,368.2,119.1,368.2,112z"/>
	<path class="st0" d="M476.9,130.6c0,9.2-2.5,16.3-7.5,21.3c-5,4.9-12,7.4-20.9,7.4h-13.4c-11,0-18.8-1.9-23.4-5.7
		c-4.6-3.8-6.9-10.4-6.9-19.9v-74h42.1c9.5,0,16.7,2.4,21.5,7.1c4.8,4.8,7.2,11.5,7.2,20.1c0,5-1.3,9.3-3.8,12.9
		c-2.6,3.5-5.4,6.1-8.5,7.6C472.3,111.7,476.9,119.4,476.9,130.6z M445.3,98.6c7.2,0,10.8-3.6,10.8-10.8c0-7.2-3.6-10.8-10.8-10.8
		h-21.1v21.5H445.3z M457.4,129.6c0-4.5-0.8-7.9-2.4-10.1c-1.6-2.3-4.4-3.4-8.5-3.4h-22.4v15.7c0,3.8,1,6.5,2.9,8
		c1.9,1.5,5.1,2.2,9.4,2.2h10.1C453.8,142,457.4,137.8,457.4,129.6z"/>
	<path class="st0" d="M558.1,159.3h-29.6c-11.2,0-19.3-2.2-24.3-6.5c-5-4.3-7.5-11.4-7.5-21.2V59.7h19.4v71.9c0,3.9,0.9,6.6,2.7,8.1
		c1.8,1.5,5,2.2,9.6,2.2h29.6V159.3z"/>
	<path class="st0" d="M649.1,159.3h-20.3l-5.6-17.2h-33.4l-5.5,17.2h-20.3L596,68.1c1.4-3.2,3-5.4,4.7-6.6c1.7-1.2,3.8-1.8,6.4-1.8
		c2.5,0,4.5,0.6,6.1,1.7c1.5,1.1,2.9,3.4,4.1,6.7L649.1,159.3z M618.8,125.7L607,86.3l-12.3,39.4H618.8z"/>
</g>
</svg>
